<?xml version="1.0" encoding="utf-8"?>
<!-- Generator: Adobe Illustrator 26.0.0, SVG Export Plug-In . SVG Version: 6.00 Build 0)  -->
<svg version="1.1" id="Capa_1" xmlns="http://www.w3.org/2000/svg" xmlns:xlink="http://www.w3.org/1999/xlink" x="0px" y="0px"
	 viewBox="0 0 250 50" style="enable-background:new 0 0 250 50;" xml:space="preserve">
<style type="text/css">
	.st0{fill:url(#SVGID_1_);stroke:#09213B;stroke-width:1.000000e-02;stroke-miterlimit:10;}
	.st1{fill:#FFFFFF;stroke:#FFFFFF;stroke-miterlimit:10;}
	.st2{fill:#FFFFFF;}
	.st3{fill:url(#SVGID_00000009561800622502132380000002587282668056642969_);}
</style>
<linearGradient id="SVGID_1_" gradientUnits="userSpaceOnUse" x1="25.173" y1="-32.6127" x2="224.827" y2="82.6459">
	<stop  offset="0" style="stop-color:#122949"/>
	<stop  offset="0.26" style="stop-color:#09213B"/>
	<stop  offset="0.61" style="stop-color:#021B30"/>
	<stop  offset="1" style="stop-color:#00192D"/>
</linearGradient>
<path class="st0" d="M235,50H15C6.7,50,0,43.3,0,35V15C0,6.7,6.7,0,15,0h220c8.3,0,15,6.7,15,15v20C250,43.3,243.3,50,235,50z"/>
<circle class="st1" cx="37.5" cy="7.4" r="0.6"/>
<circle class="st1" cx="19.1" cy="5.6" r="0.3"/>
<circle class="st1" cx="4.7" cy="25.6" r="0.6"/>
<g>
	<path class="st2" d="M54.8,31.9c-0.4,0.2-0.7,0.6-0.8,1.1c0,0,0,0.1-0.1,0.1s-0.1,0-0.1-0.1c-0.1-0.5-0.4-0.9-0.8-1.1
		c0,0,0-0.1,0-0.1c0.4-0.2,0.7-0.6,0.8-1.1c0,0,0-0.1,0.1-0.1s0.1,0,0.1,0.1l0,0c0.1,0.5,0.4,0.9,0.8,1.1
		C54.9,31.8,54.9,31.9,54.8,31.9z"/>
	<path class="st2" d="M56.3,33.7c-0.3,0.2-0.5,0.5-0.5,0.8c0,0-0.1,0-0.1,0c0-0.3-0.2-0.6-0.5-0.8c0,0,0-0.1,0-0.1
		c0.3-0.2,0.5-0.5,0.5-0.8c0,0,0.1,0,0.1,0C55.8,33.1,56,33.4,56.3,33.7C56.4,33.6,56.4,33.7,56.3,33.7z"/>
	<path class="st2" d="M57.6,30c-0.7,0.4-1,1-1.2,1.7c0,0.1-0.2,0.1-0.2,0C56,31,55.6,30.4,54.9,30c0,0-0.1-0.1,0-0.2c0,0,0,0,0,0
		c0.7-0.4,1-1,1.2-1.7c0-0.1,0.2-0.1,0.2,0c0.2,0.7,0.5,1.4,1.2,1.7C57.6,29.8,57.7,29.9,57.6,30C57.6,30,57.6,30,57.6,30z"/>
</g>
<path class="st1" d="M14.4,15.7c-0.4,0.2-0.8,0.7-0.8,1.2c-0.1,0.1-0.2,0.1-0.2,0c-0.1-0.5-0.4-1-0.8-1.2c-0.1-0.1-0.1-0.1,0-0.1
	c0.4-0.2,0.8-0.7,0.8-1.2c0-0.1,0.1-0.1,0.2-0.1c0.1,0,0.1,0.1,0.1,0.1c0.1,0.5,0.4,0.9,0.8,1.2C14.4,15.5,14.4,15.7,14.4,15.7z"/>
<circle class="st1" cx="41.2" cy="45.5" r="0.3"/>
<g>
	<path class="st2" d="M190.1,41.3"/>
	<g>
		<path class="st2" d="M190.1,42.2c1.1,0,1.2-1.8,0-1.8C189,40.4,189,42.2,190.1,42.2L190.1,42.2z"/>
	</g>
</g>
<g>
	<path class="st2" d="M161,1.6"/>
	<g>
		<path class="st2" d="M161,2.5c1.1,0,1.2-1.8,0-1.8C159.9,0.7,159.8,2.5,161,2.5L161,2.5z"/>
	</g>
</g>
<g>
	<path class="st2" d="M151.4,47.2"/>
	<g>
		<path class="st2" d="M151.4,48.1c1.1,0,1.2-1.8,0-1.8C150.2,46.3,150.2,48.1,151.4,48.1L151.4,48.1z"/>
	</g>
</g>
<g>
	<path class="st2" d="M111.7,12.6"/>
	<g>
		<path class="st2" d="M111.7,13.5c1.1,0,1.2-1.8,0-1.8C110.5,11.7,110.5,13.5,111.7,13.5L111.7,13.5z"/>
	</g>
</g>
<g>
	<path class="st2" d="M57.5,49.2"/>
	<g>
		<path class="st2" d="M57.5,50.1c1.1,0,1.2-1.8,0-1.8C56.4,48.3,56.3,50.1,57.5,50.1L57.5,50.1z"/>
	</g>
</g>
<g>
	<path class="st2" d="M95.4,41.3"/>
	<g>
		<path class="st2" d="M95.4,42.2c1.1,0,1.2-1.8,0-1.8C94.2,40.4,94.2,42.2,95.4,42.2L95.4,42.2z"/>
	</g>
</g>
<g>
	<path class="st2" d="M181.1,6"/>
	<g>
		<path class="st2" d="M181.1,6.9c1.1,0,1.2-1.8,0-1.8C180,5.1,180,6.9,181.1,6.9L181.1,6.9z"/>
	</g>
</g>
<g>
	<path class="st2" d="M173.8,32"/>
	<g>
		<path class="st2" d="M173.8,32.9c1.1,0,1.2-1.8,0-1.8C172.6,31.1,172.6,32.9,173.8,32.9L173.8,32.9z"/>
	</g>
</g>
<g>
	<path class="st2" d="M219.2,45.8"/>
	<g>
		<path class="st2" d="M219.2,46.6c1.1,0,1.2-1.8,0-1.8C218,44.9,218,46.6,219.2,46.6L219.2,46.6z"/>
	</g>
</g>
<g>
	<path class="st2" d="M98,9.3c-0.4,0.2-0.7,0.6-0.8,1.1c0,0,0,0.1-0.1,0.1c0,0-0.1,0-0.1-0.1c-0.1-0.5-0.4-0.9-0.8-1.1
		c0,0,0-0.1,0-0.1C96.6,8.9,96.9,8.5,97,8c0,0,0-0.1,0.1-0.1c0,0,0.1,0,0.1,0.1l0,0c0.1,0.5,0.4,0.9,0.8,1.1C98,9.1,98,9.2,98,9.3z"
		/>
	<path class="st2" d="M100.7,7.4c-0.7,0.4-1.1,1-1.2,1.7c0,0.1-0.2,0.1-0.2,0c-0.2-0.7-0.5-1.3-1.2-1.7C98,7.3,98,7.3,98,7.2
		c0,0,0.1,0,0.1,0c0.7-0.4,1-1,1.2-1.7c0.1-0.1,0.2-0.1,0.2,0c0.2,0.7,0.6,1.4,1.2,1.7C100.8,7.2,100.8,7.2,100.7,7.4
		C100.8,7.3,100.8,7.4,100.7,7.4z"/>
</g>
<g>
	<path class="st2" d="M118.7,49.7c-0.4,0.2-0.7,0.6-0.8,1.1c0,0-0.1,0.1-0.1,0.1c-0.1,0-0.1,0-0.1-0.1c-0.1-0.5-0.4-0.8-0.8-1.1
		c-0.1,0-0.1-0.2,0-0.2c0.4-0.2,0.7-0.6,0.8-1.1c0,0,0.1-0.1,0.1-0.1c0.1,0,0.1,0,0.1,0.1l0,0c0.1,0.5,0.4,0.8,0.8,1.1
		C118.7,49.6,118.7,49.7,118.7,49.7z"/>
	<path class="st2" d="M120.2,51.5c-0.3,0.2-0.5,0.5-0.5,0.8c0,0-0.1,0-0.1,0c-0.1-0.3-0.2-0.6-0.6-0.8c0,0,0-0.1,0-0.1
		c0.3-0.2,0.5-0.5,0.6-0.8c0,0,0.1,0,0.1,0C119.7,50.9,119.9,51.2,120.2,51.5C120.2,51.4,120.2,51.5,120.2,51.5z"/>
	<path class="st2" d="M121.4,47.8c-0.7,0.4-1,1-1.2,1.7c-0.1,0.2-0.2,0.2-0.2,0c-0.2-0.7-0.6-1.3-1.2-1.7c0,0-0.1-0.1,0-0.2
		c0,0,0,0,0,0c0.7-0.3,1.1-1,1.2-1.7c0-0.1,0.2-0.1,0.2,0c0.2,0.7,0.5,1.4,1.2,1.7C121.5,47.6,121.5,47.7,121.4,47.8
		C121.5,47.8,121.5,47.8,121.4,47.8z"/>
</g>
<g>
	<path class="st2" d="M229.3,9.3c-0.4,0.2-0.7,0.6-0.8,1.1c0,0,0,0.1-0.1,0.1s-0.1,0-0.1-0.1c-0.1-0.5-0.4-0.9-0.8-1.1
		c0,0,0-0.1,0-0.1c0.4-0.2,0.7-0.6,0.8-1.1c0,0,0.1-0.1,0.1-0.1c0,0,0.1,0,0.1,0.1l0,0c0.1,0.5,0.4,0.9,0.8,1.1
		C229.3,9.2,229.3,9.3,229.3,9.3z"/>
	<path class="st2" d="M230.8,11.1c-0.3,0.2-0.5,0.5-0.6,0.8c0,0-0.1,0-0.1,0c-0.1-0.3-0.2-0.6-0.6-0.8c-0.1,0-0.1-0.1,0-0.1
		c0.3-0.2,0.5-0.5,0.6-0.8c0,0,0.1,0,0.1,0C230.3,10.5,230.5,10.8,230.8,11.1C230.8,11,230.8,11.1,230.8,11.1z"/>
	<path class="st2" d="M232,7.4c-0.6,0.4-1.1,1-1.2,1.7c-0.1,0.1-0.2,0.1-0.2,0c-0.2-0.7-0.6-1.3-1.2-1.7c-0.1,0-0.1-0.1-0.1-0.2
		c0,0,0.1,0,0.1,0c0.6-0.4,1-1,1.2-1.7c0.1-0.1,0.2-0.1,0.2,0c0.1,0.7,0.6,1.4,1.2,1.7C232.1,7.2,232.1,7.3,232,7.4
		C232.1,7.4,232.1,7.4,232,7.4z"/>
	<path class="st2" d="M233.9,10.3c-0.6,0.4-1,1-1.2,1.7c-0.1,0.1-0.2,0.1-0.2,0c-0.1-0.7-0.6-1.4-1.2-1.7c-0.1,0-0.1-0.1-0.1-0.2
		c0,0,0.1,0,0.1,0c0.6-0.4,1.1-1,1.2-1.7c0.1-0.1,0.2-0.1,0.2,0c0.2,0.7,0.6,1.4,1.2,1.7C233.9,10.1,234,10.2,233.9,10.3
		C233.9,10.3,233.9,10.3,233.9,10.3z"/>
</g>
<g>
	<path class="st2" d="M173.8,45.2"/>
	<g>
		<path class="st2" d="M173.8,46.4c1.5,0,1.5-2.4,0-2.4C172.2,44,172.2,46.4,173.8,46.4L173.8,46.4z"/>
	</g>
</g>
<g>
	<path class="st2" d="M176.9,16.4"/>
	<g>
		<path class="st2" d="M176.9,17.6c1.5,0,1.5-2.4,0-2.4C175.4,15.2,175.4,17.6,176.9,17.6L176.9,17.6z"/>
	</g>
</g>
<g>
	<path class="st2" d="M141.3,9.2"/>
	<g>
		<path class="st2" d="M141.3,10.4c1.5,0,1.5-2.4,0-2.4C139.8,8,139.8,10.4,141.3,10.4L141.3,10.4z"/>
	</g>
</g>
<g>
	<path class="st2" d="M208,5.4"/>
	<g>
		<path class="st2" d="M208,6.6c1.5,0,1.5-2.4,0-2.4C206.5,4.2,206.5,6.6,208,6.6L208,6.6z"/>
	</g>
</g>
<g>
	<path class="st2" d="M230.2,32.3"/>
	<g>
		<path class="st2" d="M230.2,33.5c1.5,0,1.5-2.4,0-2.4C228.6,31.1,228.6,33.5,230.2,33.5L230.2,33.5z"/>
	</g>
</g>
<g>
	<path class="st2" d="M116.8,42.2"/>
	<g>
		<path class="st2" d="M116.8,43.4c1.5,0,1.5-2.4,0-2.4C115.3,41,115.3,43.4,116.8,43.4L116.8,43.4z"/>
	</g>
</g>
<g>
	<path class="st2" d="M84.9,47.7"/>
	<g>
		<path class="st2" d="M84.9,48.9c1.5,0,1.5-2.4,0-2.4C83.3,46.5,83.3,48.9,84.9,48.9L84.9,48.9z"/>
	</g>
</g>
<g>
	<path class="st2" d="M81,5.3"/>
	<g>
		<path class="st2" d="M81,6.5c1.5,0,1.5-2.4,0-2.4C79.5,4.1,79.5,6.5,81,6.5L81,6.5z"/>
	</g>
</g>
<g>
	<path class="st2" d="M123.2,6"/>
	<g>
		<path class="st2" d="M123.2,7.2c1.5,0,1.5-2.4,0-2.4C121.7,4.8,121.7,7.2,123.2,7.2L123.2,7.2z"/>
	</g>
</g>
<g>
	<path class="st2" d="M166.3,10.4"/>
	<g>
		<path class="st2" d="M166.3,11.6c1.5,0,1.5-2.4,0-2.4C164.8,9.2,164.8,11.6,166.3,11.6L166.3,11.6z"/>
	</g>
</g>
<g>
	<path class="st2" d="M205.6,45.2"/>
	<g>
		<path class="st2" d="M205.6,46.4c1.5,0,1.5-2.4,0-2.4C204,44,204,46.4,205.6,46.4L205.6,46.4z"/>
	</g>
</g>
<g>
	<path class="st2" d="M130.6,47.7"/>
	<g>
		<path class="st2" d="M130.6,48.9c1.5,0,1.5-2.4,0-2.4C129.1,46.5,129.1,48.9,130.6,48.9L130.6,48.9z"/>
	</g>
</g>
<g>
	<path class="st2" d="M130.5,14.9"/>
	<g>
		<path class="st2" d="M130.5,16.1c1.5,0,1.5-2.4,0-2.4C128.9,13.7,128.9,16.1,130.5,16.1L130.5,16.1z"/>
	</g>
</g>
<g>
	<path class="st2" d="M49.6,19.4"/>
	<g>
		<path class="st2" d="M49.6,20.6c1.5,0,1.5-2.4,0-2.4C48.1,18.2,48.1,20.6,49.6,20.6L49.6,20.6z"/>
	</g>
</g>
<g>
	<path class="st2" d="M63.9,41.9"/>
	<g>
		<path class="st2" d="M63.9,43.1c1.5,0,1.5-2.4,0-2.4C62.4,40.7,62.4,43.1,63.9,43.1L63.9,43.1z"/>
	</g>
</g>
<g>
	<path class="st2" d="M62,6"/>
	<g>
		<path class="st2" d="M62,7.2c1.5,0,1.5-2.4,0-2.4C60.5,4.8,60.5,7.2,62,7.2L62,7.2z"/>
	</g>
</g>
<g>
	<path class="st2" d="M28.6,45.5"/>
	<g>
		<path class="st2" d="M28.6,46.7c1.5,0,1.5-2.4,0-2.4C27.1,44.3,27.1,46.7,28.6,46.7L28.6,46.7z"/>
	</g>
</g>
<g>
	<path class="st2" d="M20.5,33.2"/>
	<g>
		<path class="st2" d="M20.5,34.4c1.5,0,1.5-2.4,0-2.4C19,32.1,19,34.4,20.5,34.4L20.5,34.4z"/>
	</g>
</g>
<g>
	<path class="st2" d="M9.6,43.5"/>
	<g>
		<path class="st2" d="M9.6,44.7c1.5,0,1.5-2.4,0-2.4C8.1,42.3,8.1,44.7,9.6,44.7L9.6,44.7z"/>
	</g>
</g>
<g>
	<path class="st2" d="M242.1,40"/>
	<g>
		<path class="st2" d="M242.1,41.2c1.5,0,1.5-2.4,0-2.4C240.6,38.8,240.6,41.2,242.1,41.2L242.1,41.2z"/>
	</g>
</g>
<radialGradient id="SVGID_00000150782781450575779560000018140225665094909319_" cx="41.7521" cy="-25.007" r="13.2462" fx="52.7949" fy="-32.3227" gradientTransform="matrix(1.04 0 0 -1 -17.71 1.000214e-02)" gradientUnits="userSpaceOnUse">
	<stop  offset="0" style="stop-color:#99B8F9"/>
	<stop  offset="1" style="stop-color:#A49FFF"/>
</radialGradient>
<path style="fill:url(#SVGID_00000150782781450575779560000018140225665094909319_);" d="M38.7,25c0,7.6-6.4,13.7-14.3,13.7
	c-4.8,0-9.1-2.2-11.8-6c-0.6-0.9,0.1-2,1.1-1.9c0.4,0,0.8,0,1.1,0c5.8,0,10.5-4.5,10.5-10.1c0-2.8-1.2-5.4-3.2-7.3
	c-0.8-0.8-0.2-2.1,0.9-2.1h1.3C32.4,11.3,38.7,17.4,38.7,25z"/>
<g>
	<path class="st2" d="M240.6,20.1"/>
	<g>
		<path class="st2" d="M240.6,21.3c1.5,0,1.5-2.4,0-2.4C239.1,18.9,239.1,21.3,240.6,21.3L240.6,21.3z"/>
	</g>
</g>
<g>
	<path class="st2" d="M239.3,4.8"/>
	<g>
		<path class="st2" d="M239.3,5.7c1.1,0,1.2-1.8,0-1.8C238.1,3.9,238.1,5.7,239.3,5.7L239.3,5.7z"/>
	</g>
</g>
<g>
	<g>
		<g>
			<g>
				<path class="st2" d="M71.6,35.8c1-3,2-6,3.1-9c1.1-3,2.2-8.4,4.7-10.5c0.7-1.7,1.5-1.1,2.2,1.7c0.3,1,0.6,2,0.8,3
					c0.5,1.8,0.9,3.6,1.2,5.4c0.7,3.4,0.5,7.1,2.1,10.2c0.4,0.7,1.3,0.4,1.5-0.2c1.6-4.7-0.7-11.6-1.9-16.2
					c-0.7-2.6-1.5-8.4-5.3-8.1c-3.4,0.2-5,5.8-6,8.2c-2,4.8-3.8,9.7-5.4,14.6C68,36.9,71,37.8,71.6,35.8L71.6,35.8z"/>
			</g>
		</g>
		<g>
			<g>
				<path class="st2" d="M74.3,28.8c3.4-0.1,7.9,0.5,11-1.1c0.7-0.4,0.4-1.3-0.2-1.6c-3.1-1.3-7.5-0.5-10.8-0.4
					C72.4,25.8,72.4,28.9,74.3,28.8L74.3,28.8z"/>
			</g>
		</g>
	</g>
	<g>
		<g>
			<path class="st2" d="M115.6,23.9c-4.7-3.1-9.9,4.4-9.9,8.6c0,6.2,7.7,6.3,11.7,4c4.3-2.4,5.6-8.8,1.2-11.8
				c-2.1-1.5-4.8-1.7-7.1-0.5c-2.4,1.3-3.5,3.5-4.2,6.1c-0.2,0.6,0.6,1.1,1.1,0.6c1.5-1.7,3.7-4.3,6.1-4.3c3.3,0,5,3.9,2.6,6.2
				c-1.4,1.3-5.5,2.6-7.1,1c-2-1.8,1.9-8.7,4.2-7.3C115.7,27.5,117.2,24.9,115.6,23.9L115.6,23.9z"/>
		</g>
	</g>
	<g>
		<g>
			<path class="st2" d="M125.5,25.4c-5.2,3.4-3.3,11.6,2.8,12.5c6.3,1,10.9-6,8.3-11.5c-0.7-1.5-3.2-0.8-3.1,0.9
				c0.2,2.8,0,6.7-3.8,7c-3.8,0.3-4.3-4-2.3-6.3C128.6,26.7,127.1,24.4,125.5,25.4L125.5,25.4z"/>
		</g>
	</g>
	<g>
		<g>
			<g>
				<path class="st2" d="M141.6,18.7c-0.4,4.4-1,9-0.8,13.4c0.1,2,0.6,4.4,2.9,4.7c0.3,0,0.5-0.2,0.6-0.5c0.8-2,0.7-5.1,0.8-7.3
					c0.3-3.4,0.3-6.9,0.4-10.3C145.6,16.1,141.8,16.2,141.6,18.7L141.6,18.7z"/>
			</g>
		</g>
		<g>
			<g>
				<path class="st2" d="M137.8,24.2c5.8,0.5,12.3,1.8,18,0.1c0.5-0.1,0.7-0.9,0.2-1.2c-5.5-2.5-12.3-2.1-18.2-2.4
					C135.5,20.6,135.6,24,137.8,24.2L137.8,24.2z"/>
			</g>
		</g>
	</g>
	<g>
		<g>
			<g>
				<path class="st2" d="M91.4,17.3c-0.5,6.2-1.3,12.6-1.2,18.8c0,1.1,1.6,1.3,1.9,0.3c1.7-6,2-12.9,1.9-19.1
					C94,15.6,91.5,15.7,91.4,17.3L91.4,17.3z"/>
			</g>
		</g>
		<g>
			<g>
				<path class="st2" d="M92.9,29c1.9-0.8,4.2-1.9,6.2-1.1c1.9,0.7,2.5,2.5,1.4,4.2c-0.9,1.4-2.5,2.3-4.2,2.2
					c-1.2,0-3.1-0.4-4.1-1.1c-0.6-0.5-1.2,0.3-1.1,0.9c0.4,2.8,3.1,4.1,5.8,4.1c3.3-0.1,5.9-2.7,6.9-5.7c1-2.8-0.1-5.6-2.7-6.9
					c-3.2-1.6-6.5-0.2-9.5,1.2C89.8,27.4,91.3,29.7,92.9,29L92.9,29z"/>
			</g>
		</g>
	</g>
	<g>
		<g>
			<path class="st2" d="M172.4,35.1c0.9-5,1.5-10,2.4-15c-0.8,0-1.6,0-2.3,0c0.9,2.9,1.5,6.4,2.9,9.1c0.5,1,1.3,1.9,2.5,1.8
				c1.7-0.1,2.2-1.9,2.8-3.2c1.2-2.8,2.4-5.6,3.6-8.4c-0.8-0.1-1.6-0.2-2.5-0.3c0.7,5.6-0.2,12,1.5,17.3c0.2,0.6,1,0.6,1.2,0
				c1.9-5.2,0.5-12-0.2-17.3c-0.2-1.4-1.9-1.7-2.5-0.3c-0.7,1.5-1.3,3.1-2,4.6c-0.4,1-0.9,3.4-1.9,4c-0.5,0.8-0.8,0.6-0.9-0.7
				c-0.3-0.8-0.5-1.6-0.8-2.4c-0.5-1.6-1-3.2-1.5-4.7c-0.3-1-2.1-1.3-2.3,0c-0.9,5-2.1,9.9-3.1,14.8C169,36.2,172,37,172.4,35.1
				L172.4,35.1z"/>
		</g>
	</g>
	<g>
		<g>
			<g>
				<path class="st2" d="M188.3,19.9c0.2,3.4,0.4,6.8,0.5,10.2c0.1,2.4-0.4,5.1,1.4,6.9c0.3,0.3,0.8,0.3,1.1,0
					c1.6-2,0.9-4.4,0.7-6.9c-0.2-3.4-0.4-6.8-0.6-10.2C191.4,17.8,188.2,17.8,188.3,19.9L188.3,19.9z"/>
			</g>
		</g>
		<g>
			<g>
				<path class="st2" d="M191.1,20.6c1.7-0.1,3.5-0.2,5.2-0.3c1.4-0.1,2.8-0.1,3.7-1.4c0.3-0.4,0.1-0.9-0.2-1.3
					c-1-1.1-2.5-0.9-3.8-0.8c-1.6,0.1-3.3,0.2-4.9,0.3C188.9,17.4,188.9,20.7,191.1,20.6L191.1,20.6z"/>
			</g>
		</g>
		<g>
			<g>
				<path class="st2" d="M191.1,28.8c1.9,0.1,3.5,0.4,5.2-0.7c1.2-0.8,0.9-2.4-0.4-2.9c-1.8-0.7-3.5,0-5.2,0.4
					C188.8,26,189.3,28.7,191.1,28.8L191.1,28.8z"/>
			</g>
		</g>
		<g>
			<g>
				<path class="st2" d="M191.7,37.5c2.4,0.1,4.7,0,7.1-0.3c1.9-0.2,3.6-0.4,4.8-2.1c0.4-0.5,0.1-1.3-0.4-1.6c-1.6-1-3.3-0.5-5-0.2
					c-2.1,0.3-4.3,0.5-6.4,0.5C189.4,34,189.4,37.4,191.7,37.5L191.7,37.5z"/>
			</g>
		</g>
	</g>
</g>
</svg>
