<?xml version="1.0" encoding="utf-8"?>
<!-- Generator: Adobe Illustrator 26.0.0, SVG Export Plug-In . SVG Version: 6.00 Build 0)  -->
<svg version="1.1" id="Capa_1" xmlns="http://www.w3.org/2000/svg" xmlns:xlink="http://www.w3.org/1999/xlink" x="0px" y="0px"
	 viewBox="0 0 500 100" style="enable-background:new 0 0 500 100;" xml:space="preserve">
<style type="text/css">
	.st0{fill:url(#SVGID_1_);stroke:#09213B;stroke-width:1.000000e-02;stroke-miterlimit:10;}
	.st1{fill:#E8EFCE;}
	.st2{fill:#FFFFFF;}
	.st3{fill:url(#SVGID_00000068662683187593360730000000919014221310524037_);}
</style>
<linearGradient id="SVGID_1_" gradientUnits="userSpaceOnUse" x1="45.5935" y1="-68.0022" x2="454.4065" y2="168.0022">
	<stop  offset="0" style="stop-color:#122949"/>
	<stop  offset="0.26" style="stop-color:#09213B"/>
	<stop  offset="0.61" style="stop-color:#021B30"/>
	<stop  offset="1" style="stop-color:#00192D"/>
</linearGradient>
<path class="st0" d="M485,100H15c-8.3,0-15-6.7-15-15V15C0,6.7,6.7,0,15,0h470c8.3,0,15,6.7,15,15v70C500,93.3,493.3,100,485,100z"
	/>
<circle class="st1" cx="74.9" cy="14.8" r="1.2"/>
<circle class="st1" cx="38.1" cy="11.1" r="0.6"/>
<circle class="st1" cx="9.3" cy="51.2" r="1.2"/>
<g>
	<path class="st1" d="M109.6,63.8c-0.8,0.5-1.4,1.3-1.6,2.2c0,0.1-0.1,0.2-0.2,0.2s-0.2-0.1-0.2-0.2c-0.2-0.9-0.8-1.7-1.6-2.2
		c-0.1-0.1-0.1-0.3,0-0.3c0.8-0.5,1.4-1.3,1.6-2.2c0-0.1,0.1-0.2,0.2-0.2s0.2,0.1,0.2,0.2l0,0c0.2,0.9,0.8,1.7,1.6,2.2
		C109.7,63.5,109.7,63.7,109.6,63.8z"/>
	<path class="st1" d="M112.6,67.3c-0.6,0.3-1,0.9-1.1,1.5c0,0.1-0.2,0.1-0.2,0c-0.1-0.6-0.5-1.2-1.1-1.5c-0.1,0-0.1-0.2,0-0.2
		c0.6-0.3,1-0.9,1.1-1.5c0-0.1,0.2-0.1,0.2,0c0.1,0.6,0.5,1.2,1.1,1.5C112.7,67.1,112.7,67.3,112.6,67.3z"/>
	<path class="st1" d="M115.1,60c-1.3,0.7-2.1,2-2.4,3.4c-0.1,0.3-0.5,0.3-0.5,0c-0.3-1.4-1.1-2.7-2.4-3.4c-0.1-0.1-0.2-0.2-0.1-0.4
		c0-0.1,0.1-0.1,0.1-0.1c1.3-0.7,2.1-2,2.4-3.4c0.1-0.3,0.5-0.3,0.5,0c0.3,1.4,1.1,2.7,2.4,3.4C115.2,59.6,115.3,59.7,115.1,60
		C115.2,59.9,115.2,60,115.1,60z"/>
</g>
<path class="st1" d="M28.8,31.3c-0.9,0.5-1.5,1.4-1.7,2.4c-0.1,0.2-0.4,0.2-0.4,0c-0.2-1-0.8-1.9-1.7-2.4c-0.1-0.1-0.1-0.3,0-0.3
	c0.9-0.5,1.5-1.4,1.7-2.4c0-0.1,0.2-0.2,0.3-0.1c0.1,0,0.1,0.1,0.1,0.1c0.2,1,0.8,1.9,1.7,2.4C28.9,31,28.9,31.3,28.8,31.3z"/>
<circle class="st1" cx="82.4" cy="90.9" r="0.7"/>
<g>
	<path class="st2" d="M380.3,82.5"/>
	<g>
		<path class="st2" d="M380.3,83.4c1.1,0,1.2-1.8,0-1.8C379.1,81.6,379.1,83.4,380.3,83.4L380.3,83.4z"/>
	</g>
</g>
<g>
	<path class="st2" d="M322,3.1"/>
	<g>
		<path class="st2" d="M322,4c1.1,0,1.2-1.8,0-1.8C320.9,2.2,320.8,4,322,4L322,4z"/>
	</g>
</g>
<g>
	<path class="st2" d="M302.7,94.4"/>
	<g>
		<path class="st2" d="M302.7,95.3c1.1,0,1.2-1.8,0-1.8C301.6,93.5,301.6,95.3,302.7,95.3L302.7,95.3z"/>
	</g>
</g>
<g>
	<path class="st2" d="M223.3,25.2"/>
	<g>
		<path class="st2" d="M223.3,26.1c1.1,0,1.2-1.8,0-1.8C222.2,24.3,222.2,26.1,223.3,26.1L223.3,26.1z"/>
	</g>
</g>
<g>
	<path class="st2" d="M115,98.3"/>
	<g>
		<path class="st2" d="M115,99.2c1.1,0,1.2-1.8,0-1.8C113.9,97.4,113.8,99.2,115,99.2L115,99.2z"/>
	</g>
</g>
<g>
	<path class="st2" d="M190.8,82.5"/>
	<g>
		<path class="st2" d="M190.8,83.4c1.1,0,1.2-1.8,0-1.8C189.6,81.6,189.6,83.4,190.8,83.4L190.8,83.4z"/>
	</g>
</g>
<g>
	<path class="st2" d="M362.3,11.9"/>
	<g>
		<path class="st2" d="M362.3,12.8c1.1,0,1.2-1.8,0-1.8C361.1,11,361.1,12.8,362.3,12.8L362.3,12.8z"/>
	</g>
</g>
<g>
	<path class="st2" d="M347.5,63.9"/>
	<g>
		<path class="st2" d="M347.5,64.8c1.1,0,1.2-1.8,0-1.8C346.4,63,346.3,64.8,347.5,64.8L347.5,64.8z"/>
	</g>
</g>
<g>
	<path class="st2" d="M438.4,91.5"/>
	<g>
		<path class="st2" d="M438.4,92.4c1.1,0,1.2-1.8,0-1.8C437.2,90.6,437.2,92.4,438.4,92.4L438.4,92.4z"/>
	</g>
</g>
<g>
	<path class="st1" d="M196,18.5c-0.8,0.5-1.4,1.3-1.6,2.2c0,0.1-0.1,0.2-0.2,0.2c-0.1,0-0.2-0.1-0.2-0.2c-0.2-0.9-0.8-1.7-1.6-2.2
		c-0.1-0.1-0.1-0.3,0-0.3c0.8-0.5,1.4-1.3,1.6-2.2c0-0.1,0.1-0.2,0.2-0.2c0.1,0,0.2,0.1,0.2,0.2l0,0c0.2,0.9,0.8,1.7,1.6,2.2
		C196.1,18.2,196.1,18.4,196,18.5z"/>
	<path class="st1" d="M201.5,14.7c-1.3,0.7-2.1,2-2.4,3.4c-0.1,0.3-0.5,0.3-0.5,0c-0.3-1.4-1.1-2.7-2.4-3.4
		c-0.1-0.1-0.2-0.2-0.1-0.4c0-0.1,0.1-0.1,0.1-0.1c1.3-0.7,2.1-2,2.4-3.4c0.1-0.3,0.5-0.3,0.5,0c0.3,1.4,1.1,2.7,2.4,3.4
		C201.6,14.3,201.7,14.4,201.5,14.7C201.6,14.6,201.6,14.7,201.5,14.7z"/>
</g>
<g>
	<path class="st1" d="M237.4,99.4c-0.8,0.5-1.4,1.3-1.6,2.2c0,0.1-0.1,0.2-0.2,0.2c-0.1,0-0.2-0.1-0.2-0.2c-0.2-0.9-0.8-1.7-1.6-2.2
		c-0.1-0.1-0.1-0.3,0-0.3c0.8-0.5,1.4-1.3,1.6-2.2c0-0.1,0.1-0.2,0.2-0.2c0.1,0,0.2,0.1,0.2,0.2l0,0c0.2,0.9,0.8,1.7,1.6,2.2
		C237.5,99.1,237.5,99.3,237.4,99.4z"/>
	<path class="st1" d="M240.4,102.9c-0.6,0.3-1,0.9-1.1,1.5c0,0.1-0.2,0.1-0.2,0c-0.1-0.6-0.5-1.2-1.1-1.5c-0.1,0-0.1-0.2,0-0.2
		c0.6-0.3,1-0.9,1.1-1.5c0-0.1,0.2-0.1,0.2,0c0.1,0.6,0.5,1.2,1.1,1.5C240.5,102.7,240.5,102.9,240.4,102.9z"/>
	<path class="st1" d="M242.9,95.6c-1.3,0.7-2.1,2-2.4,3.4c-0.1,0.3-0.5,0.3-0.5,0c-0.3-1.4-1.1-2.7-2.4-3.4
		c-0.1-0.1-0.2-0.2-0.1-0.4c0-0.1,0.1-0.1,0.1-0.1c1.3-0.7,2.1-2,2.4-3.4c0.1-0.3,0.5-0.3,0.5,0c0.3,1.4,1.1,2.7,2.4,3.4
		C243,95.2,243.1,95.3,242.9,95.6C243,95.5,243,95.6,242.9,95.6z"/>
</g>
<g>
	<path class="st1" d="M458.6,18.6c-0.8,0.5-1.4,1.3-1.6,2.2c0,0.1-0.1,0.2-0.2,0.2s-0.2-0.1-0.2-0.2c-0.2-0.9-0.8-1.7-1.6-2.2
		c-0.1-0.1-0.1-0.3,0-0.3c0.8-0.5,1.4-1.3,1.6-2.2c0-0.1,0.1-0.2,0.2-0.2c0.1,0,0.2,0.1,0.2,0.2l0,0c0.2,0.9,0.8,1.7,1.6,2.2
		C458.7,18.3,458.7,18.5,458.6,18.6z"/>
	<path class="st1" d="M461.6,22.1c-0.6,0.3-1,0.9-1.1,1.5c0,0.1-0.2,0.1-0.2,0c-0.1-0.6-0.5-1.2-1.1-1.5c-0.1,0-0.1-0.2,0-0.2
		c0.6-0.3,1-0.9,1.1-1.5c0-0.1,0.2-0.1,0.2,0c0.1,0.6,0.5,1.2,1.1,1.5C461.7,21.9,461.7,22.1,461.6,22.1z"/>
	<path class="st1" d="M464.1,14.8c-1.3,0.7-2.1,2-2.4,3.4c-0.1,0.3-0.5,0.3-0.5,0c-0.3-1.4-1.1-2.7-2.4-3.4
		c-0.1-0.1-0.2-0.2-0.1-0.4c0-0.1,0.1-0.1,0.1-0.1c1.3-0.7,2.1-2,2.4-3.4c0.1-0.3,0.5-0.3,0.5,0c0.3,1.4,1.1,2.7,2.4,3.4
		C464.2,14.4,464.3,14.5,464.1,14.8C464.2,14.7,464.2,14.8,464.1,14.8z"/>
	<path class="st1" d="M467.7,20.6c-1.3,0.7-2.1,2-2.4,3.4c-0.1,0.3-0.5,0.3-0.5,0c-0.3-1.4-1.1-2.7-2.4-3.4
		c-0.1-0.1-0.2-0.2-0.1-0.4c0-0.1,0.1-0.1,0.1-0.1c1.3-0.7,2.1-2,2.4-3.4c0.1-0.3,0.5-0.3,0.5,0c0.3,1.4,1.1,2.7,2.4,3.4
		C467.8,20.2,467.9,20.3,467.7,20.6C467.8,20.5,467.8,20.6,467.7,20.6z"/>
</g>
<g>
	<path class="st2" d="M347.5,90.4"/>
	<g>
		<path class="st2" d="M347.5,91.5c1.5,0,1.5-2.4,0-2.4C346,89.2,346,91.5,347.5,91.5L347.5,91.5z"/>
	</g>
</g>
<g>
	<path class="st2" d="M353.8,32.7"/>
	<g>
		<path class="st2" d="M353.8,33.9c1.5,0,1.5-2.4,0-2.4C352.3,31.5,352.3,33.9,353.8,33.9L353.8,33.9z"/>
	</g>
</g>
<g>
	<g>
		<path class="st1" d="M282.6,19.6c1.5,0,1.5-2.4,0-2.4C281.1,17.2,281.1,19.6,282.6,19.6L282.6,19.6z"/>
	</g>
</g>
<g>
	<path class="st2" d="M416.1,10.7"/>
	<g>
		<path class="st2" d="M416.1,11.9c1.5,0,1.5-2.4,0-2.4C414.5,9.5,414.5,11.9,416.1,11.9L416.1,11.9z"/>
	</g>
</g>
<g>
	<path class="st2" d="M460.4,64.5"/>
	<g>
		<path class="st2" d="M460.4,65.7c1.5,0,1.5-2.4,0-2.4C458.8,63.3,458.8,65.7,460.4,65.7L460.4,65.7z"/>
	</g>
</g>
<g>
	<g>
		<path class="st1" d="M233.7,85.5c1.5,0,1.5-2.4,0-2.4C232.2,83.1,232.2,85.5,233.7,85.5L233.7,85.5z"/>
	</g>
</g>
<g>
	<g>
		<path class="st1" d="M169.7,96.6c1.5,0,1.5-2.4,0-2.4C168.2,94.2,168.2,96.6,169.7,96.6L169.7,96.6z"/>
	</g>
</g>
<g>
	<g>
		<path class="st1" d="M162,11.7c1.5,0,1.5-2.4,0-2.4C160.5,9.3,160.5,11.7,162,11.7L162,11.7z"/>
	</g>
</g>
<g>
	<g>
		<path class="st1" d="M246.5,13.1c1.5,0,1.5-2.4,0-2.4C244.9,10.7,244.9,13.1,246.5,13.1L246.5,13.1z"/>
	</g>
</g>
<g>
	<g>
		<path class="st1" d="M332.6,22c1.5,0,1.5-2.4,0-2.4C331.1,19.6,331.1,22,332.6,22L332.6,22z"/>
	</g>
</g>
<g>
	<path class="st2" d="M411.1,90.4"/>
	<g>
		<path class="st2" d="M411.1,91.5c1.5,0,1.5-2.4,0-2.4C409.6,89.2,409.6,91.5,411.1,91.5L411.1,91.5z"/>
	</g>
</g>
<g>
	<g>
		<path class="st1" d="M261.3,96.6c1.5,0,1.5-2.4,0-2.4C259.7,94.2,259.7,96.6,261.3,96.6L261.3,96.6z"/>
	</g>
</g>
<g>
	<g>
		<path class="st1" d="M260.9,30.9c1.5,0,1.5-2.4,0-2.4C259.4,28.5,259.4,30.9,260.9,30.9L260.9,30.9z"/>
	</g>
</g>
<g>
	<g>
		<path class="st1" d="M99.2,40c1.5,0,1.5-2.4,0-2.4C97.7,37.6,97.7,40,99.2,40L99.2,40z"/>
	</g>
</g>
<g>
	<g>
		<path class="st1" d="M127.9,85c1.5,0,1.5-2.4,0-2.4C126.3,82.6,126.3,85,127.9,85L127.9,85z"/>
	</g>
</g>
<g>
	<g>
		<path class="st1" d="M124,13.1c1.5,0,1.5-2.4,0-2.4C122.5,10.7,122.5,13.1,124,13.1L124,13.1z"/>
	</g>
</g>
<g>
	<g>
		<path class="st1" d="M57.3,92.1c1.5,0,1.5-2.4,0-2.4C55.8,89.7,55.8,92.1,57.3,92.1L57.3,92.1z"/>
	</g>
</g>
<g>
	<g>
		<path class="st1" d="M41,67.7c1.5,0,1.5-2.4,0-2.4C39.5,65.3,39.5,67.7,41,67.7L41,67.7z"/>
	</g>
</g>
<g>
	<g>
		<path class="st1" d="M19.3,88.2c1.5,0,1.5-2.4,0-2.4C17.8,85.8,17.7,88.2,19.3,88.2L19.3,88.2z"/>
	</g>
</g>
<g>
	<path class="st2" d="M484.2,80"/>
	<g>
		<path class="st2" d="M484.2,81.2c1.5,0,1.5-2.4,0-2.4C482.7,78.8,482.7,81.2,484.2,81.2L484.2,81.2z"/>
	</g>
</g>
<radialGradient id="SVGID_00000091715337502787193130000010230659550202887577_" cx="66.4753" cy="-49.9908" r="26.4925" fx="88.5609" fy="-64.6221" gradientTransform="matrix(1.04 0 0 -1 -17.71 1.000214e-02)" gradientUnits="userSpaceOnUse">
	<stop  offset="0" style="stop-color:#99B8F9"/>
	<stop  offset="1" style="stop-color:#A49FFF"/>
</radialGradient>
<path style="fill:url(#SVGID_00000091715337502787193130000010230659550202887577_);" d="M77.4,50c0,15.2-12.8,27.5-28.5,27.5
	c-9.5,0.1-18.3-4.5-23.6-12.1c-1.2-1.8,0.2-4.1,2.3-3.9c0.8,0.1,1.5,0.1,2.3,0.1c11.6,0,21-9.1,21-20.3c0-5.6-2.4-10.8-6.4-14.6
	c-1.6-1.5-0.5-4.2,1.7-4.2h2.6C64.7,22.5,77.4,34.8,77.4,50z"/>
<g>
	<path class="st2" d="M481.2,40.2"/>
	<g>
		<path class="st2" d="M481.2,41.4c1.5,0,1.5-2.4,0-2.4C479.7,39,479.7,41.4,481.2,41.4L481.2,41.4z"/>
	</g>
</g>
<g>
	<path class="st2" d="M478.5,9.6"/>
	<g>
		<path class="st2" d="M478.5,10.5c1.1,0,1.2-1.8,0-1.8C477.4,8.7,477.4,10.5,478.5,10.5L478.5,10.5z"/>
	</g>
</g>
<g>
	<g>
		<g>
			<g>
				<path class="st2" d="M142.6,71.5c2.1-6.5,4.3-12.9,6.7-19.3c2.5-6.5,4.8-13.7,8.5-19.6c3.8-5.9,5.6,2.4,6.5,5.5
					c1.2,4.2,2.2,8.4,3.1,12.7c0.8,4,1.5,8.1,2,12.2c0.4,3.4,0.3,7,2.2,10c0.5,0.8,1.9,1,2.3,0c1.7-3.9,0.6-8.3,0-12.5
					c-0.8-5.5-1.8-11-3-16.5c-1.2-5.3-2.9-20.4-11.3-19.1c-6.7,1-9.6,12.3-11.8,17.5c-3.8,9.1-7.1,18.3-10.1,27.7
					C136.7,73.3,141.6,74.6,142.6,71.5L142.6,71.5z"/>
			</g>
		</g>
		<g>
			<g>
				<path class="st2" d="M148.6,57.1c6.7-0.2,15.2,0.8,21.5-1.8c1.3-0.5,1.4-2.3,0-2.8c-6.5-2.2-14.8-0.7-21.5-0.5
					C145.4,52.1,145.4,57.2,148.6,57.1L148.6,57.1z"/>
			</g>
		</g>
	</g>
	<g>
		<g>
			<path class="st2" d="M230.9,48.2c-9.1-5.9-19.1,8.8-19,16.7c0.1,11.8,14.8,11.9,22.5,7.6c8.3-4.7,10.8-16.8,2.3-22.8
				c-9.7-6.9-19.2,1.4-22.1,10.8c-0.3,1,1.1,1.9,1.8,1c3-3.7,7.2-8.9,12.4-9c7,0,10.8,8.5,5.5,13.3c-3.1,2.8-10.9,5.3-14.7,2.4
				c-5.1-4,3.5-19,8.8-15.7C231.2,54.2,233.6,49.9,230.9,48.2L230.9,48.2z"/>
		</g>
	</g>
	<g>
		<g>
			<path class="st2" d="M251.3,51.3c-9.6,6.6-6.4,21.7,5,24c11.7,2.3,21.3-10.8,16.8-21.4c-1.1-2.6-5.9-2.7-5.5,0.7
				c0.6,6-0.3,14.1-8.1,14.6c-2.8,0.2-5.5-1.2-6.9-3.7c-2-3.5-0.6-7.1,2-9.9C256.6,53.4,253.9,49.5,251.3,51.3L251.3,51.3z"/>
		</g>
	</g>
	<g>
		<g>
			<g>
				<path class="st2" d="M283.8,37.4c-0.6,7.9-1.5,15.9-1.5,23.9c0,3.9-0.1,11.2,4.8,12.1c0.6,0.1,1.1-0.1,1.3-0.7
					c0.6-2,0.1-4.1,0.3-6.2c0.3-3.1,0.7-6.1,0.9-9.2c0.4-6.6,0.6-13.3,0.9-19.9C290.6,33.1,284.1,33.2,283.8,37.4L283.8,37.4z"/>
			</g>
		</g>
		<g>
			<g>
				<path class="st2" d="M275.6,47.8c11.6,0.9,24.5,3.4,36,0.5c1.1-0.3,0.9-1.7,0-2c-11-4.4-24.3-3.6-36-4.3
					C271.8,41.7,271.9,47.5,275.6,47.8L275.6,47.8z"/>
			</g>
		</g>
	</g>
	<g>
		<g>
			<g>
				<path class="st2" d="M183.2,34.6c-0.4,6.3-0.7,12.6-1.1,18.8c-0.4,6.2-1.6,12.6-1.4,18.8c0.1,1.8,2.6,2.2,3.2,0.4
					c1.8-5.8,2-12.3,2.6-18.3c0.6-6.6,1.1-13.2,1.1-19.8C187.5,31.8,183.4,31.8,183.2,34.6L183.2,34.6z"/>
			</g>
		</g>
		<g>
			<g>
				<path class="st2" d="M185.5,57.6c3.6-1.5,7.7-3.5,11.7-2.6c4.3,0.9,6.6,4.4,4.6,8.6c-1.6,3.3-5,5.6-8.7,5.6
					c-2.5,0-6.7-0.8-8.6-2.5c-1-0.9-2.4,0-2.2,1.3c1.1,5.3,6.2,7.7,11.3,7.6c6.3-0.2,11.3-5.2,13.3-10.8c1.9-5.3-0.1-10.8-5.2-13.3
					c-6.2-3-12.7-0.4-18.5,2.3C180.5,54.9,182.8,58.8,185.5,57.6L185.5,57.6z"/>
			</g>
		</g>
	</g>
	<g>
		<g>
			<path class="st2" d="M344.3,70.1c1.7-10,3.1-20,5-30c-1.3,0-2.6,0-3.9,0c1.8,5.7,3.2,11.7,5.5,17.2c0.9,2.2,2.5,4.6,5.3,4.1
				c3.3-0.5,4.4-4.6,5.5-7.2c2.2-5.2,4.4-10.4,6.6-15.7c-1.4-0.2-2.7-0.4-4.1-0.6c0.7,6,1.2,12,1.4,18.1c0.2,5.5,0,11.1,1.4,16.5
				c0.3,1,1.7,1,2,0c3.3-10.7,0.7-23.7-0.6-34.6c-0.3-2.4-3.2-2.8-4.1-0.6c-1.2,2.8-2.4,5.6-3.6,8.4c-1.1,2.6-2.1,7.5-4,9.5
				c-0.1,1.2-0.5,1.4-1.2,0.6c-1-0.4-1.4-1.1-1.3-2.3c-0.7-1.4-1-3.1-1.5-4.6c-1.1-3.4-2.2-6.8-3.3-10.1c-0.6-1.7-3.5-2.1-3.9,0
				c-1.8,9.9-4.1,19.8-6,29.7C338.7,71.9,343.7,73.3,344.3,70.1L344.3,70.1z"/>
		</g>
	</g>
	<g>
		<g>
			<g>
				<path class="st2" d="M377.7,39.7c0.3,6.5,0.7,13,1,19.4c0.2,4.6-0.8,10.6,2.1,14.3c0.4,0.5,1.3,0.3,1.6-0.2
					c2.5-4,0.7-10.5,0.5-15.1c-0.3-6.2-0.7-12.3-1-18.5C381.8,37,377.6,37,377.7,39.7L377.7,39.7z"/>
			</g>
		</g>
		<g>
			<g>
				<path class="st2" d="M382.2,40.1c3.1-0.2,6.2-0.3,9.3-0.5c2.5-0.1,5.4,0,7.5-1.5c0.8-0.6,1-1.9,0-2.4c-2.3-1.2-4.9-0.8-7.5-0.7
					c-3.1,0.2-6.2,0.4-9.3,0.6C379.3,35.7,379.2,40.2,382.2,40.1L382.2,40.1z"/>
			</g>
		</g>
		<g>
			<g>
				<path class="st2" d="M382.2,56.5c3.7,0,8.5,0.8,11.1-2.4c0.3-0.4,0.4-1,0-1.4c-3.3-2.9-7.9-1.1-11.6-0.4
					C379.2,52.7,379.8,56.5,382.2,56.5L382.2,56.5z"/>
			</g>
		</g>
		<g>
			<g>
				<path class="st2" d="M383.5,73.8c6.8,0.2,17.2,1,22.8-3.5c1-0.8,0.4-2.4-0.7-2.7c-3.5-0.9-6.9,0.1-10.4,0.6
					c-3.9,0.5-7.8,0.7-11.7,0.8C380.3,69,380.3,73.7,383.5,73.8L383.5,73.8z"/>
			</g>
		</g>
	</g>
</g>
</svg>
