<?xml version="1.0" encoding="utf-8"?>
<!-- Generator: Adobe Illustrator 26.0.0, SVG Export Plug-In . SVG Version: 6.00 Build 0)  -->
<svg version="1.1" id="Capa_1" xmlns="http://www.w3.org/2000/svg" xmlns:xlink="http://www.w3.org/1999/xlink" x="0px" y="0px"
	 viewBox="0 0 18 18" style="enable-background:new 0 0 18 18;" xml:space="preserve">
<style type="text/css">
	.st0{fill:#BCBBBB;}
	.st1{fill:#F48024;}
</style>
<path class="st0" d="M13.4,15.2v-3.9h1.7v5.6H2.3v-5.6H4v3.9H13.4z"/>
<path class="st1" d="M12.1,12.2l0.3-1.3L5.6,9.5l-0.3,1.4L12.1,12.2z M6.2,7.6l6.4,3l0.6-1.3l-6.4-3C6.8,6.3,6.2,7.6,6.2,7.6z
	 M8,4.4L13.4,9l0.9-1.1L8.9,3.3L8,4.4L8,4.4z M11.5,1.1l-1.2,0.9l4.3,5.7l1.2-0.9L11.5,1.1z M5.3,13.9h6.9v-1.3H5.3V13.9z"/>
</svg>
